<svg id="Capa_1" enable-background="new 0 0 512 512" height="512" viewBox="0 0 512 512" width="512" xmlns="http://www.w3.org/2000/svg"><g><g><path d="m468.594 48.695h-425.193c-16.97 0-30.726 13.757-30.726 30.726v275.568c0 16.97 13.757 30.726 30.726 30.726h3.783c14.099 0 25.161 12.017 24.084 26.075-1.096 14.301-4.018 30.833-10.783 45.736-3.289 7.246 3.963 14.806 11.379 11.92 24.622-9.581 63.169-30.353 87.733-71.903 4.338-7.338 12.242-11.829 20.767-11.829h288.231c16.97 0 30.726-13.757 30.726-30.726v-275.567c0-16.969-13.757-30.726-30.727-30.726z" fill="#b3dafe"/><path d="m499.325 79.425v275.56c0 16.974-13.758 30.732-30.732 30.732h-20.102c16.974 0 30.732-13.758 30.732-30.732v-275.56c0-16.974-13.758-30.732-30.732-30.732h20.102c16.974 0 30.732 13.757 30.732 30.732z" fill="#8ac9fe"/></g><g><g fill="#fece85"><path d="m248.654 131.197s-68.19-76.355-83.005-27.283c0 0-5.555 25.072 0 41.702h83.005z"/><path d="m263.341 131.197s68.19-76.355 83.005-27.283c0 0 5.555 25.072 0 41.702h-83.005z"/></g><g><path d="m346.345 145.617h-22.626c5.558-16.633 0-41.699 0-41.699-2.016-6.651-4.996-11-8.667-13.557 13.578-5.537 25.936-4.201 31.293 13.557 0-.001 5.558 25.066 0 41.699z" fill="#fec165"/></g><path d="m360.66 342.788h-209.325c-6.421 0-11.626-5.205-11.626-11.626v-145.433h232.577v145.432c0 6.421-5.205 11.627-11.626 11.627z" fill="#fea3ce"/><path d="m372.291 185.733v144.722c0 6.81-5.527 12.337-12.337 12.337h-21.279c6.81 0 12.337-5.527 12.337-12.337v-144.722z" fill="#fe7ab6"/><path d="m255.998 185.729h-29.876v98.71c0 5.297 5.852 8.504 10.317 5.653l15.949-10.186c2.201-1.406 5.019-1.406 7.22 0l15.949 10.186c4.464 2.851 10.317-.355 10.317-5.653v-98.71z" fill="#fdb441"/><path d="m285.87 185.733v98.705c0 5.293-5.845 8.507-10.311 5.654l-10.374-6.619v-97.74z" fill="#fea613"/><path d="m284.835 145.616h-57.675v-5.12c0-13.099 10.619-23.718 23.718-23.718h10.239c13.099 0 23.718 10.619 23.718 23.718z" fill="#fdb441"/><path d="m284.834 139.705v5.906h-20.618v-5.906c0-11.155-7.974-20.453-18.53-22.502 1.421-.28 2.89-.425 4.398-.425h11.822c12.662-.001 22.928 10.265 22.928 22.927z" fill="#fea613"/><path d="m372.959 186.897h-233.923c-4.297 0-7.781-3.484-7.781-7.781v-26.887c0-4.297 3.484-7.781 7.781-7.781h233.924c4.297 0 7.781 3.484 7.781 7.781v26.887c0 4.298-3.484 7.781-7.782 7.781z" fill="#fe3d97"/><path d="m380.746 152.702v25.947c0 4.551-3.702 8.253-8.264 8.253h-21.216c4.561 0 8.264-3.702 8.264-8.253v-25.947c0-4.561-3.702-8.253-8.264-8.253h21.216c4.561 0 8.264 3.691 8.264 8.253z" fill="#e41e7f"/></g><g><g><path d="m410.554 417.039c-3.957 12.629-14.234 35.58-38.196 44.54-1.957.732-1.957 3.547 0 4.278 23.962 8.96 34.239 31.911 38.196 44.54.669 2.136 3.705 2.136 4.375 0 3.957-12.629 14.234-35.58 38.196-44.54 1.957-.732 1.957-3.547 0-4.278-23.962-8.96-34.239-31.911-38.196-44.54-.67-2.136-3.706-2.136-4.375 0z" fill="#fdb441"/><path d="m453.124 465.858c-23.963 8.957-34.237 31.906-38.192 44.538-.672 2.139-3.71 2.139-4.382 0-1.763-5.631-4.775-13.286-9.69-20.864 4.426-9.428 3.813-18.707 17.108-23.675 1.955-.733 1.955-3.544 0-4.277-13.295-4.976-12.683-14.255-17.108-23.683 4.915-7.569 7.926-15.233 9.69-20.855.672-2.139 3.71-2.139 4.382 0 3.954 12.623 14.229 35.573 38.192 44.538 1.955.734 1.955 3.544 0 4.278z" fill="#fea613"/></g><g><path d="m81.591 1.602c-3.957 12.629-14.234 35.58-38.196 44.54-1.957.732-1.957 3.547 0 4.278 23.962 8.96 34.239 31.911 38.196 44.54.669 2.136 3.705 2.136 4.375 0 3.957-12.629 14.234-35.58 38.196-44.54 1.957-.732 1.957-3.547 0-4.278-23.962-8.96-34.239-31.911-38.196-44.54-.67-2.136-3.706-2.136-4.375 0z" fill="#fdb441"/><path d="m124.161 50.421c-23.963 8.957-34.237 31.907-38.192 44.538-.672 2.139-3.71 2.139-4.382 0-1.763-5.631-4.775-13.286-9.69-20.864 4.426-9.428 3.813-18.707 17.108-23.675 1.955-.733 1.955-3.544 0-4.277-13.295-4.975-12.682-14.255-17.108-23.683 4.915-7.569 7.926-15.233 9.69-20.855.672-2.139 3.71-2.139 4.382 0 3.954 12.623 14.229 35.573 38.192 44.538 1.955.734 1.955 3.545 0 4.278z" fill="#fea613"/></g></g></g></svg>